<svg width="375" height="101" viewBox="0 0 375 101" fill="none" xmlns="http://www.w3.org/2000/svg">
<path d="M44.6555 17.342C45.1087 16.8687 45.3551 16.1998 45.8852 15.7715C46.4868 16.1549 46.8445 16.7762 47.1255 17.4108C47.5945 17.0168 48.0663 16.5092 48.7182 16.4589C49.3887 16.7947 49.1793 17.7465 49.3383 18.3599C49.9373 18.1008 50.6343 17.8549 51.2783 18.1035C51.485 18.7486 51.2014 19.407 50.9656 20.0045C51.591 20.0468 52.235 20.1023 52.8127 20.3641C53.0274 21.1097 52.3198 21.6411 51.9382 22.1911C52.5451 22.5348 53.3507 22.7833 53.5203 23.5527C53.0327 23.9572 52.5053 24.3036 51.9249 24.5574C52.3754 25.0545 52.7491 25.6177 52.9717 26.2522C52.3675 26.6277 51.6626 26.7202 50.9682 26.7704C51.2465 27.4023 51.424 28.0766 51.2942 28.7719C50.6104 28.8301 49.9399 28.6794 49.3092 28.4229C49.2827 29.1077 49.2058 29.8031 48.8216 30.3927C48.1696 30.1865 47.5892 29.8189 47.1202 29.3245C46.8313 29.9723 46.4947 30.6439 45.8322 30.9823C45.3763 30.5011 45.0159 29.9459 44.7509 29.343C44.2606 29.7317 43.7889 30.2261 43.1449 30.3345C42.5274 29.9141 42.6202 29.0522 42.5353 28.3991C41.9311 28.6106 40.8021 29.2214 40.4735 28.3674C40.4974 27.8122 40.6961 27.2887 40.8763 26.7704C40.2853 26.7017 39.697 26.6092 39.1087 26.5166C38.8012 25.7314 39.4956 25.1074 39.9488 24.5627C39.4028 24.293 38.7933 24.0471 38.4329 23.5316C38.4196 22.7489 39.4002 22.5533 39.9223 22.1805C39.538 21.7151 39.1007 21.2445 38.9735 20.6338C39.3101 19.9543 40.2509 20.1341 40.8763 20.0045C40.6643 19.4149 40.455 18.8068 40.4815 18.1722C41.0141 17.8417 41.6157 18.0744 42.1829 18.1537C42.2624 18.2304 42.4214 18.3837 42.5009 18.4631C42.6122 17.7968 42.5406 17.0221 43.0177 16.4854C43.6935 16.3849 44.1705 16.9824 44.6555 17.342ZM44.902 18.6772C42.5936 19.1452 40.8551 21.4613 41.1387 23.8118C41.2792 26.6832 44.4302 28.883 47.1811 28.0237C49.6484 27.4235 51.3101 24.6553 50.6104 22.2069C50.0512 19.7639 47.3507 18.0797 44.902 18.6772Z" fill="#EBB600"/>
<path d="M323.642 16.2604C325.659 16.2789 327.681 16.2287 329.701 16.2789C331.171 16.4297 332.77 17.006 333.549 18.3518C334.818 20.3137 334.052 23.2485 331.884 24.2347C332.732 25.4377 333.522 26.6777 334.402 27.8569C333.207 27.8622 332.014 27.8702 330.824 27.849C330.125 26.8099 329.441 25.755 328.683 24.7582C328.097 24.7635 327.517 24.7635 326.939 24.7661C326.936 25.7973 326.936 26.8311 326.939 27.8649C325.837 27.8596 324.739 27.8622 323.64 27.8569C323.642 23.9914 323.64 20.1259 323.642 16.2604ZM326.939 18.833C326.936 19.9673 326.936 21.1016 326.939 22.2385C327.946 22.2041 329.006 22.3865 329.979 22.0349C331.219 21.4373 331.095 19.3539 329.775 18.9361C328.845 18.7378 327.883 18.8648 326.939 18.833Z" fill="#EBB600"/>
<path d="M358.712 16.2631C362.186 16.2605 365.663 16.2605 369.14 16.2605C369.14 17.1198 369.143 17.9817 369.111 18.8384C367.943 18.8304 366.774 18.8331 365.608 18.8357C365.608 21.8446 365.61 24.8534 365.608 27.8623C364.513 27.8596 363.421 27.8596 362.332 27.8623C362.335 24.8587 362.327 21.8578 362.337 18.8569C361.132 18.8172 359.928 18.8357 358.725 18.8384C358.712 17.9791 358.712 17.1198 358.712 16.2631Z" fill="#EBB600"/>
<path d="M294.36 16.271C295.275 16.2578 296.189 16.2578 297.106 16.2657C298.444 18.5078 299.828 20.7235 301.161 22.9682C302.602 20.7896 303.853 18.4893 305.213 16.2578C306.101 16.2631 306.986 16.2605 307.876 16.2605C307.882 20.126 307.905 23.9915 307.897 27.8596C306.914 27.8622 305.931 27.8622 304.95 27.8596C304.866 25.8607 304.985 23.8593 304.858 21.8657C303.832 23.4679 302.875 25.1125 301.884 26.7333C301.405 26.7359 300.93 26.7385 300.461 26.7438C299.409 25.1865 298.484 23.5525 297.461 21.9794C297.39 23.9386 297.44 25.9004 297.427 27.8596C296.404 27.8622 295.383 27.8649 294.363 27.8517C294.36 23.9915 294.363 20.1312 294.36 16.271Z" fill="#EBB600"/>
<path d="M308.881 27.849C310.667 24.0152 312.342 20.1312 314.062 16.2684C315.143 16.2578 316.224 16.2631 317.308 16.2578C319.028 20.1286 320.78 23.9862 322.481 27.8622C321.334 27.8596 320.189 27.8622 319.047 27.8596C318.747 27.1061 318.437 26.3578 318.125 25.6096C316.481 25.6175 314.841 25.6122 313.203 25.6149C312.896 26.3657 312.594 27.1193 312.27 27.8649C311.139 27.8596 310.007 27.8702 308.881 27.849ZM315.66 19.5258C315.162 20.7208 314.682 21.9265 314.152 23.1057C315.154 23.1084 316.161 23.1137 317.168 23.1004C316.667 21.908 316.195 20.7023 315.66 19.5258Z" fill="#EBB600"/>
<path d="M335.968 16.2711C337.071 16.2553 338.176 16.2553 339.281 16.2711C339.292 17.913 339.247 19.5523 339.318 21.1942C340.741 19.51 342.294 17.9368 343.754 16.2843C344.982 16.2447 346.211 16.2553 347.444 16.2764C345.824 17.9844 344.274 19.7559 342.657 21.4639C344.306 23.6082 345.991 25.7286 347.674 27.8518C346.376 27.865 345.077 27.8729 343.781 27.8438C342.739 26.424 341.573 25.0994 340.529 23.6848C340.113 24.1105 339.7 24.5389 339.292 24.9698C339.276 25.9296 339.278 26.8893 339.284 27.8518C338.176 27.8676 337.073 27.865 335.971 27.8518C335.968 23.9915 335.971 20.1313 335.968 16.2711Z" fill="#EBB600"/>
<path d="M348.58 27.8596C348.573 23.9915 348.575 20.126 348.578 16.2578C351.626 16.2657 354.671 16.2578 357.718 16.2631C357.716 17.1224 357.721 17.9817 357.686 18.841C355.728 18.8251 353.77 18.8383 351.811 18.833C351.806 19.4517 351.808 20.0731 351.819 20.6944C353.56 20.6997 355.304 20.6785 357.05 20.7076C357.04 21.5326 357.04 22.3575 357.048 23.1824C355.301 23.2221 353.555 23.1903 351.811 23.2035C351.808 23.9068 351.806 24.6101 351.806 25.3134C353.844 25.3293 355.882 25.3214 357.92 25.3161C357.944 26.1648 357.941 27.0135 357.938 27.8622C354.819 27.8596 351.7 27.8622 348.58 27.8596Z" fill="#EBB600"/>
<path d="M44.8198 19.5815C46.4391 19.1135 48.3101 19.7692 49.2297 21.189C50.2871 22.7463 50.03 25.0572 48.6016 26.2998C47.3587 27.4605 45.3339 27.6694 43.8896 26.7678C42.705 26.046 41.8967 24.6817 41.9894 23.2778C41.9603 21.5936 43.2297 20.0521 44.8198 19.5815Z" fill="#EBB600"/>
<path d="M58.6325 25.6888C59.1599 25.0807 60.1192 25.1124 60.6466 25.71C65.6131 30.4295 70.598 35.1358 75.5618 39.8632C75.8533 40.1514 76.1422 40.5242 76.121 40.9578C76.1475 45.3177 76.0998 49.675 76.1422 54.0349C75.9806 54.2914 75.8242 54.5531 75.6307 54.7911C67.7438 62.4507 59.8542 70.105 51.954 77.7514C51.1669 78.7429 49.4284 77.9153 49.659 76.6833C49.6616 74.999 49.6431 73.3148 49.6669 71.6306C49.6272 71.1679 49.9187 70.7925 50.2341 70.4937C56.2447 64.5897 62.2606 58.691 68.242 52.7632C68.7906 52.2502 68.682 51.4412 68.6952 50.7643C68.6634 49.0114 68.7403 47.2531 68.6608 45.5028C68.629 44.6938 67.7544 44.1121 66.9885 44.2998C66.4664 44.5616 66.0371 44.9634 65.6025 45.3415C61.4523 48.7813 57.3313 52.2582 53.1784 55.6953C52.5026 56.2479 51.8825 56.8719 51.1404 57.3373C50.6952 57.6307 50.1758 57.3611 49.7173 57.2526C48.9541 56.277 48.9541 54.6166 49.9346 53.7785C54.3525 48.8448 58.8127 43.9508 63.2226 39.0092C63.6519 38.6179 63.7606 38.0547 63.742 37.4942C62.7456 36.2621 61.5079 35.2521 60.379 34.1443C59.7933 33.5256 58.5901 33.3643 58.0256 34.0861C55.5159 36.7803 53.0353 39.5036 50.523 42.1978C50.2791 42.5416 49.8445 42.6182 49.4629 42.6975C49.3092 42.3723 49.1608 42.0471 49.015 41.7219C48.8666 40.0721 48.8984 38.409 48.7394 36.7565C48.6466 36.1749 48.856 35.58 49.2986 35.1913C52.4152 32.0317 55.5159 28.851 58.6325 25.6888Z" fill="#31313D"/>
<path d="M32.2182 26.2759C32.5389 25.8846 33.1749 25.9348 33.4664 26.3314C36.75 29.6707 40.0415 33.0048 43.3039 36.3626C43.2747 38.6259 43.3357 40.8891 43.2694 43.1524C42.9806 43.2952 42.6758 43.3877 42.3604 43.4326C41.6449 42.9224 41.1069 42.2164 40.4841 41.603C38.6846 39.6861 36.8427 37.8089 35.0115 35.9158C34.3304 35.239 33.75 34.4246 32.8807 33.9725C32.4063 34.3374 31.9664 34.7419 31.553 35.1729C28.5371 38.2504 25.4602 41.2725 22.4814 44.3845C22.3012 46.6028 22.2403 48.8317 22.4311 51.0499C22.4973 51.6263 22.4125 52.327 22.9108 52.7447C27.2305 56.9883 31.5185 61.2663 35.8728 65.4755C36.3472 65.9779 37.2058 65.4808 37.1078 64.8224C37.1714 62.7866 37.1078 60.7481 37.1369 58.7122C37.1184 58.1834 37.2058 57.5515 36.7844 57.1496C35.5309 55.8435 34.2429 54.5691 32.9655 53.2841C32.7191 53.0329 32.4169 52.7527 32.4779 52.3614C32.462 50.2277 32.4726 48.094 32.4779 45.9576C32.568 45.8122 32.7482 45.5214 32.8383 45.3733C33.2332 45.3733 33.6811 45.3839 33.9249 45.7488C37.007 48.8554 40.0839 51.9701 43.1025 55.1323C43.1078 62.3953 43.1131 69.6609 43.1025 76.9213C43.1793 77.9339 42.0662 78.8249 41.1016 78.4918C40.5927 78.3728 40.2588 77.9471 39.9037 77.6008C32.5283 70.0311 25.0601 62.5565 17.6793 54.9921C16.9558 54.2333 15.9302 53.5247 15.9434 52.3614C15.9275 49.4398 15.9275 46.5182 15.9434 43.5992C15.9169 42.7003 16.6351 42.0789 17.2208 41.5052C22.2429 36.4525 27.2014 31.3364 32.2182 26.2759Z" fill="#31313D"/>
<path d="M101.706 40.6538C106.932 37.3277 113.451 36.5768 119.483 37.5445C124.275 38.3245 128.894 40.6406 132.016 44.4056C129.649 46.5949 127.227 48.7206 124.847 50.8966C122.902 48.681 120.22 47.047 117.276 46.6187C113.64 46.0158 109.574 46.8989 106.932 49.5799C105.496 50.9733 104.597 52.8241 104.149 54.7568C103.757 56.7372 103.731 58.7942 104.181 60.7719C104.78 63.3815 106.325 65.8139 108.607 67.2708C109.646 68.0032 110.854 68.4288 112.063 68.799C115.102 69.3886 118.362 69.1506 121.171 67.7916C121.15 64.1694 121.169 60.5445 121.163 56.9196C124.476 56.9222 127.789 56.9196 131.102 56.9196C131.099 62.4085 131.099 67.8974 131.102 73.3863C127.314 76.0699 122.791 77.577 118.211 78.1825C112.943 78.8329 107.372 78.1957 102.705 75.5385C97.818 72.876 94.1608 68.0666 92.9947 62.6253C92.5892 61.2689 92.6608 59.8438 92.4514 58.4584C92.523 56.4992 92.5548 54.5056 93.0795 52.602C94.2191 47.6895 97.4125 43.3084 101.706 40.6538Z" fill="#31313D"/>
<path d="M193.603 38.0335C196.662 37.1769 199.879 37.0209 203.038 37.2536C206.208 37.5735 209.345 38.4434 212.136 40.006C216.387 42.3353 219.792 46.2219 221.396 50.8013C222.957 55.3225 222.951 60.3831 221.353 64.8911C219.731 69.407 216.371 73.2514 212.157 75.5463C208.5 77.5875 204.268 78.5076 200.091 78.4018C195.005 78.4283 189.872 76.8234 185.873 73.6532C182.237 70.84 179.698 66.6837 178.773 62.1916C178.42 60.8881 178.518 59.5265 178.306 58.2018C178.296 53.9344 179.393 49.6089 181.905 46.1109C184.667 42.1291 188.95 39.3106 193.603 38.0335ZM197.73 46.7825C195.056 47.4065 192.684 49.1779 191.316 51.5496C189.652 54.3205 189.4 57.7338 190.034 60.8511C190.728 63.7938 192.636 66.4986 195.36 67.8946C197.825 69.2299 200.801 69.3911 203.488 68.7222C205.603 68.1009 207.543 66.8318 208.863 65.0603C210.48 62.9531 211.246 60.2641 211.134 57.6254C211.216 54.4712 209.952 51.2614 207.594 49.133C204.999 46.7296 201.127 45.8941 197.73 46.7825Z" fill="#31313D"/>
<path d="M138.403 37.9542C144.48 37.9569 150.554 37.9489 156.628 37.9569C160.481 37.9252 164.446 38.6655 167.769 40.6908C170.229 42.174 172.216 44.4399 173.266 47.1183C174.382 50.0319 174.45 53.2629 173.844 56.2982C173.3 58.4081 172.301 60.4228 170.799 62.0171C169.579 63.3497 168.048 64.3464 166.46 65.1872C169.354 69.3145 172.193 73.4814 175.047 77.6377C171.019 77.6324 166.993 77.6562 162.967 77.6271C160.614 74.0948 158.149 70.6391 155.804 67.1041C153.747 67.0856 151.691 67.0962 149.634 67.0988C149.634 70.6127 149.634 74.1265 149.637 77.6404C145.892 77.6404 142.147 77.6377 138.403 77.6404C138.403 64.4125 138.4 51.1821 138.403 37.9542ZM149.632 46.8433C149.637 50.685 149.637 54.5293 149.632 58.3737C151.693 58.3922 153.753 58.3763 155.814 58.3843C157.309 58.4239 158.849 58.2098 160.193 57.5223C161.555 56.8164 162.541 55.4468 162.753 53.9292C163.036 52.1603 162.824 50.1245 161.541 48.7655C160.325 47.388 158.412 46.8618 156.628 46.8433C154.296 46.8195 151.964 46.8274 149.632 46.8433Z" fill="#31313D"/>
<path d="M224.173 37.9543C228.037 37.949 231.904 37.9622 235.77 37.949C235.876 38.2689 235.985 38.5888 236.094 38.9114C238.675 47.0363 241.206 55.1745 243.811 63.2889C246.31 55.5579 248.92 47.8639 251.451 40.1435C251.708 39.4164 251.934 38.6761 252.204 37.9516C255.644 37.9516 259.084 37.9596 262.524 37.949C262.95 39.1969 263.311 40.466 263.74 41.714C265.993 48.977 268.235 56.248 270.575 63.4845C270.798 62.657 271.073 61.8453 271.349 61.0362C273.853 53.3396 276.363 45.6456 278.883 37.9543C282.469 37.9543 286.055 37.949 289.643 37.9569C285.323 51.1768 281.033 64.4073 276.742 77.6377C272.722 77.6404 268.699 77.6404 264.681 77.6377C264.355 76.5326 263.997 75.4406 263.65 74.3433C261.456 67.4135 259.283 60.4757 257.08 53.5485C254.748 60.5259 252.482 67.5272 250.14 74.502C249.822 75.5543 249.464 76.5934 249.127 77.6404C245.109 77.6404 241.092 77.6351 237.077 77.643C236.761 76.6251 236.425 75.6151 236.099 74.6025C232.113 62.3899 228.172 50.1642 224.173 37.9543Z" fill="#31313D"/>
<path d="M293.581 37.9622C303.989 37.9464 314.396 37.9569 324.803 37.9569C324.811 40.8468 324.803 43.7393 324.808 46.6318C318.151 46.6213 311.494 46.6398 304.839 46.6213C304.794 46.9306 304.754 47.24 304.717 47.5467C304.72 49.1648 304.72 50.7802 304.717 52.3957C304.757 52.6998 304.799 53.0038 304.845 53.3105C310.707 53.3079 316.569 53.3052 322.434 53.3132C322.436 56.1158 322.442 58.9184 322.431 61.7237C316.542 61.7237 310.656 61.7131 304.77 61.7263C304.654 64.1191 304.757 66.5172 304.715 68.9127C311.656 68.9893 318.599 68.9232 325.54 68.947C325.542 71.8422 325.537 74.7373 325.545 77.6351C314.891 77.6219 304.24 77.6536 293.587 77.6193C293.581 64.3994 293.592 51.1795 293.581 37.9622Z" fill="#31313D"/>
<path d="M328.047 37.9648C332.287 37.9595 336.53 37.9225 340.77 37.9833C343.314 41.8277 346.044 45.5478 348.62 49.371C351.273 45.6006 353.86 41.7801 356.449 37.9648C360.506 37.9463 364.566 37.9437 368.624 37.9675C364.036 44.3659 359.398 50.7273 354.79 57.1099C359.716 63.9472 364.646 70.7845 369.57 77.6272C365.242 77.6404 360.917 77.6324 356.592 77.6298C353.881 73.5263 351.093 69.4784 348.403 65.3617C345.62 69.407 342.957 73.5369 340.248 77.6351C335.966 77.6272 331.683 77.643 327.403 77.6272C332.213 70.9379 337.039 64.2618 341.865 57.5832C337.304 51.0129 332.624 44.5245 328.047 37.9648Z" fill="#31313D"/>
</svg>
